# xmcd
#
# Track frame offsets:
#	150
#	17025
#	36711
#	57457
#	78261
#	97152
#	112606
#	133861
#	153076
#	170431
#
# Disc length: 2639 seconds
#
# Revision: 0
# Processed by: cddbd v1.5.2PL0 Copyright (c) Steve Scherf et al.
# Submitted via: EasyCDDAExtractor 10.0.5.1
#
DISCID=7d0a4d0a
DTITLE=Ehsan khajehamiri - Salameh Akhar
DYEAR=1900
DGENRE=
TTITLE0=Khiyal
TTITLE1=Saye Beh Sayeh
TTITLE2=Baran Keh Mibarad
TTITLE3=Shance
TTITLE4=Zeshto Ziba
TTITLE5=Bavar Nemikonam
TTITLE6=Tamoomeshkon
TTITLE7=Jodaiee
TTITLE8=Fasleh Barooni
TTITLE9=Salameh Akhar ~ji
EXTD=
EXTT0=
EXTT1=
EXTT2=
EXTT3=
EXTT4=
EXTT5=
EXTT6=
EXTT7=
EXTT8=
EXTT9=
PLAYORDER=
